# xmcd CD database file
#
# Track frame offsets:
#	150
#	16209
#	31984
#	44972
#	64267
#	81267
#	92482
#	107000
#	119669
#	137800
#	166367
#	183354
#	194861
#	203967
#
# Disc length: 2942 seconds
#
# Revision: 0
# Processed by: cddbd v1.4PL0 Copyright (c) Steve Scherf et al.
# Submitted via: CDex 1.40Beta9
#
DISCID=d00b7c0e
DTITLE=Kentucky Riders - Songs We Wish We Wrote
DYEAR=2002
DGENRE=Country
TTITLE0=Downtime
TTITLE1=I Feel Like I'm Forgetting Somthing
TTITLE2=There's Your Trouble
TTITLE3=Maybe Not Tonight
TTITLE4=I'm From The Country
TTITLE5=It's A Little Too Late
TTITLE6=Big Deal
TTITLE7=Full Time Love
TTITLE8=Betty's Got A Bass Boat
TTITLE9=I Hope You Dance
TTITLE10=1 Don't Even Know Your Name
TTITLE11=Trouble Is A Woman
TTITLE12=Hello Trouble
TTITLE13=Yodeling Fool
EXTD=YEAR: 2002 ID3G: 2
EXTT0=
EXTT1=
EXTT2=
EXTT3=
EXTT4=
EXTT5=
EXTT6=
EXTT7=
EXTT8=
EXTT9=
EXTT10=
EXTT11=
EXTT12=
EXTT13=
PLAYORDER=
